# xmcd
#
# Track frame offsets:
#	150
#	12375
#	25575
#	40800
#	50400
#	65025
#	79500
#	91125
#	103875
#	118125
#	135000
#	148575
#	163125
#	177975
#	192150
#	204150
#	222450
#	236400
#	246000
#	259275
#
# Disc length: 3662 seconds
#
# Revision: 0
# Processed by: cddbd v1.5.2PL0 Copyright (c) Steve Scherf et al.
# Submitted via: EasyCDDAExtractor 16.0.6.1
#
DISCID=130e4c14
DTITLE=Συλλογικός δίσκος - Χρυσή δισκοθήκη 1972
DYEAR=1995
DGENRE=Λαϊκή
TTITLE0=Πάριος Γιάννης - Τι θέλεις να κάνω [Γ. Χατζηνάσιου-Κ. Ρουβινέτη]
TTITLE1=Καλατζής Γιάννης-Αλεξίου Χάρις - Παποράκι [Μ. Λοΐζου-Λ. Παπαδόπουλου]
TTITLE2=Γαλάνη Δήμητρα - Ήταν μιά φορά κι ένα καιρό [Γ. Χατζηνάσιου-Χ. Στίππα]
TTITLE3=Μητσιάς Μανώλης - Μιά Κεφαλονίτισσα [Λ. Κηλαηδόνη-Ν. Γκάτσου]
TTITLE4=Κόκοτας Σταμάτης - Το θέμα είναι να την βρω [Γ. Ζαμπέτα-Ξ. Φιλέρη]
TTITLE5=Κόκοτας Σταμάτης - Μιά παρένθεση και μόνο [Γ. Χατζηνάσιου-Ν. Βρεττού]
TTITLE6=Αλεξίου Χάρις - Δυό παλληκάρια απ' τ' Αϊβαλί [Α. Καλδάρα-Πυθαγόρα]
TTITLE7=Πουλόπουλος Γιάννης-Αδαμαντίδου Κ. - Πάμε για ύπνο Κατερίνα [Γ. Κατσαρ
TTITLE7=ού-Πυθαγόρα]
TTITLE8=Γεωργιάδης Δώρος-χορωδία - Αν ήμουν πλούσιος [Δ. Γεωργιάδη-Σ. Τσώτου]
TTITLE9=Βοσκόπουλος Τόλης - Ξανθή αγαπημένη Παναγιά [Τ. Βοσκόπουλου-Η. Λυμπερό
TTITLE9=πουλου]
TTITLE10=Διονυσίου Στράτος - Αφιλότιμη [Γ. Χατζηνάσιου-Τ. Οικονόμου]
TTITLE11=Καζαντζίδης Στέλιος - Την Παρασκευή το βράδυ [Σ. Καζαντζίδη-Χ. Νικολό
TTITLE11=πουλου-Πυθαγόρα]
TTITLE12=Διαμάντη Λίτσα - Νύχτα στάσου [Χ. Νικολόπουλου-Πυθαγόρα]
TTITLE13=Ρεπάνης Αντώνης - Διπρόσωπη [Α. Ρεπάνη-Ε. Παπαγιαννοπούλου]
TTITLE14=Διονυσίου Στράτος - Εγώ καλά σού τά 'λεγα [Ά. Πάνου]
TTITLE15=Ξυλούρης Νίκος - Αυτό τον κόσμο τον καλό [Σ. Ξαρχάκου-Β. Ανδρεόπουλου
TTITLE15=]
TTITLE16=Καλατζής Γιάννης-χορωδία - Ο Κουταλιανός [Μ. Λοΐζου-Λ. Παπαδόπουλου]
TTITLE17=Αλεξίου Χάρις - Πήρε φωτιά το Κορδελιό [Α. Καλδάρα-Πυθαγόρα]
TTITLE18=Ανδρεάδης Θέμης-Ζούνη Δ.-Σπυράτου Μ. - Του άντρα του πολλά βαρύ [Γ. Μ
TTITLE18=αρκόπουλου-Ε. Θαλασσινού]
TTITLE19=Γαλάνη Δήμητρα - Μαρία με τα κίτρινα [διασκ. Β. Δημητρίου]
EXTD=
EXTT0=
EXTT1=
EXTT2=
EXTT3=
EXTT4=
EXTT5=
EXTT6=
EXTT7=
EXTT8=
EXTT9=
EXTT10=
EXTT11=
EXTT12=
EXTT13=
EXTT14=
EXTT15=
EXTT16=
EXTT17=
EXTT18=
EXTT19=
PLAYORDER=
